<svg xmlns="http://www.w3.org/2000/svg" width="547.61" height="57.18"><g data-name="Layer 2"><g data-name="Layer 1"><path d="M4.38 44.4V15.66H0V13.2h4.38v-1q0-5.76 2.34-9A7.57 7.57 0 0113.2 0a11.3 11.3 0 013.48.54A8.17 8.17 0 0119.44 2l-1.08 2.14a7 7 0 00-2.07-1.08 7.84 7.84 0 00-2.55-.42A5.36 5.36 0 009 5.07q-1.65 2.43-1.65 7v1.13h8.88v2.46H7.38V44.4zM36.84 15.9a12.26 12.26 0 00-11.76 9v19.5h-3V13.2H25v7.68a15.06 15.06 0 014.29-5.37A11 11 0 0135 13.14q.6-.06 1.08-.06h.78zM54.06 45A14.33 14.33 0 0148 43.71a15.09 15.09 0 01-4.83-3.51A16.2 16.2 0 0140 35a16.94 16.94 0 01-1.14-6.18 16.84 16.84 0 014.38-11.4A15.09 15.09 0 0148 14a14.19 14.19 0 016-1.29A14 14 0 0160 14a15.54 15.54 0 014.83 3.51 16.35 16.35 0 013.24 5.16 16.92 16.92 0 01-3.15 17.53 15.09 15.09 0 01-4.83 3.51A14.19 14.19 0 0154.06 45zM41.82 29a14 14 0 001 5.19 13.57 13.57 0 002.61 4.23 12.38 12.38 0 003.87 2.85 11.22 11.22 0 009.48 0 12.3 12.3 0 003.9-2.91 14.46 14.46 0 002.64-14.73 13.65 13.65 0 00-2.64-4.26 13.05 13.05 0 00-3.87-2.91 10.5 10.5 0 00-4.71-1.08 10.69 10.69 0 00-4.74 1.08 12.35 12.35 0 00-3.87 2.94 14.63 14.63 0 00-2.64 4.35A14.08 14.08 0 0041.82 29zM102 44.4h-3V27q0-6.06-1.71-8.82a5.91 5.91 0 00-5.43-2.76 11.27 11.27 0 00-3.93.72 13.31 13.31 0 00-3.63 2 14.88 14.88 0 00-2.94 3.09 12.72 12.72 0 00-1.86 3.81V44.4h-3V13.2h2.82v7.44a14.68 14.68 0 012.37-3.27 15 15 0 013.18-2.52 16 16 0 013.75-1.62 14.67 14.67 0 014.08-.57q5.1 0 7.2 3.57t2.1 10.23zM124.68 42.9l-.81.45a8.32 8.32 0 01-1.44.63 18 18 0 01-2 .54 10.78 10.78 0 01-2.34.24 7.64 7.64 0 01-2.37-.36 5.63 5.63 0 01-2-1.08 5.15 5.15 0 01-1.32-1.74 5.59 5.59 0 01-.48-2.4V15.66h-4.38V13.2H112V2.52h3V13.2h7.26v2.46H115v22.8a3 3 0 001.2 2.61 4.49 4.49 0 002.7.87 7.53 7.53 0 003.21-.63q1.35-.63 1.65-.81zM142.44 45a14.53 14.53 0 01-6.12-1.29 15.12 15.12 0 01-4.89-3.54A16.82 16.82 0 01127 28.68a16.53 16.53 0 014.38-11.31 14.92 14.92 0 014.83-3.45 15.11 15.11 0 0112.15 0 15.21 15.21 0 014.86 3.48 15.92 15.92 0 013.18 5.1 16.71 16.71 0 011.14 6.15v.75a1.62 1.62 0 01-.06.57h-27.34a13.9 13.9 0 001.26 5 14.24 14.24 0 002.73 4 12.29 12.29 0 003.81 2.64 11.25 11.25 0 004.62 1 11.42 11.42 0 003.18-.45 13 13 0 002.91-1.23 10.54 10.54 0 002.4-1.89 8.86 8.86 0 001.65-2.43l2.64.72a9.94 9.94 0 01-2 3.09 13.2 13.2 0 01-3 2.43 15.34 15.34 0 01-3.75 1.59 15.53 15.53 0 01-4.15.56zm12.24-17.4a14.14 14.14 0 00-1.23-5 13.46 13.46 0 00-2.7-3.93 12.11 12.11 0 00-3.81-2.58 11.94 11.94 0 00-9.24 0 12.11 12.11 0 00-3.81 2.58 12.48 12.48 0 00-2.64 4 15.19 15.19 0 00-1.17 5zM189.66 44.4h-3V27q0-6.06-1.71-8.82a5.91 5.91 0 00-5.43-2.76 11.27 11.27 0 00-3.93.72 13.31 13.31 0 00-3.63 2 14.88 14.88 0 00-2.96 3.13 12.72 12.72 0 00-1.86 3.81V44.4h-3V13.2H167v7.44a14.68 14.68 0 012.37-3.27 15 15 0 013.18-2.52 16 16 0 013.75-1.62 14.67 14.67 0 014.08-.57q5.1 0 7.2 3.57t2.1 10.23zM211.56 45a13.47 13.47 0 01-6-1.35 15.41 15.41 0 01-4.77-3.6 16.49 16.49 0 01-3.12-5.16 16.78 16.78 0 01-1.11-6 17.78 17.78 0 011.08-6.18 16.5 16.5 0 013-5.16 14.71 14.71 0 014.53-3.55 12.51 12.51 0 015.73-1.32 12.07 12.07 0 013.84.6 15.23 15.23 0 013.36 1.59 15 15 0 012.82 2.31 16 16 0 012.16 2.82V.6h3v39.6q0 1.5 1.26 1.5v2.7l-.6.09h-.48a2.65 2.65 0 01-2-.93 2.88 2.88 0 01-.84-2v-3.4a14.4 14.4 0 01-5.13 5 13.16 13.16 0 01-6.73 1.84zm.54-2.7a10.44 10.44 0 003.48-.66 13.52 13.52 0 006.18-4.5 6.37 6.37 0 001.32-3.24V23.64a12.3 12.3 0 00-1.89-3.21 13.94 13.94 0 00-2.79-2.64A14.2 14.2 0 00215 16a10.09 10.09 0 00-3.48-.66 10.39 10.39 0 00-4.92 1.17 12.25 12.25 0 00-3.78 3.06 13.8 13.8 0 00-2.4 4.32 15.23 15.23 0 00-.84 5 13.6 13.6 0 001 5.1 13.82 13.82 0 002.67 4.26 13 13 0 004 2.94 11.15 11.15 0 004.85 1.11z" fill="#c33"/><path d="M235 29.46V26.7h17.28v2.76zM275.52 45a13 13 0 01-6.84-1.92 14.31 14.31 0 01-5-4.92v6.24h-2.76V.6h3V20a19.69 19.69 0 015.25-5.28 12.22 12.22 0 017-2 12.58 12.58 0 016 1.41 14 14 0 014.5 3.72 17.31 17.31 0 012.8 5.15 18.24 18.24 0 011 5.91 16.71 16.71 0 01-1.14 6.15 16.2 16.2 0 01-3.15 5.1 15.57 15.57 0 01-4.74 3.51 13.4 13.4 0 01-5.92 1.33zm-.6-2.7a11.11 11.11 0 005-1.14 12.7 12.7 0 003.93-3 14.35 14.35 0 002.58-4.29 13.51 13.51 0 00.93-4.92 14.93 14.93 0 00-.87-5.07 14 14 0 00-2.46-4.32 12.34 12.34 0 00-3.78-3 10.3 10.3 0 00-4.83-1.14 10 10 0 00-3.72.69 13.08 13.08 0 00-3.21 1.83 15 15 0 00-2.64 2.64 17.21 17.21 0 00-1.95 3.12V34a6.54 6.54 0 001.32 3.27 11.81 11.81 0 002.78 2.6 14.42 14.42 0 003.45 1.77 10.44 10.44 0 003.47.66zM310.74 45a14.33 14.33 0 01-6.09-1.29 15.09 15.09 0 01-4.83-3.51 16.2 16.2 0 01-3.18-5.2 16.94 16.94 0 01-1.14-6.18 16.84 16.84 0 014.38-11.4 15.09 15.09 0 014.83-3.42 14.19 14.19 0 016-1.29 14 14 0 016 1.29 15.54 15.54 0 014.83 3.51 16.35 16.35 0 013.24 5.16 16.92 16.92 0 01-3.18 17.53 15.09 15.09 0 01-4.83 3.51 14.19 14.19 0 01-6.03 1.29zM298.5 29a14 14 0 001 5.19 13.57 13.57 0 002.61 4.23 12.38 12.38 0 003.87 2.85 11.22 11.22 0 009.48 0 12.3 12.3 0 003.9-2.91A14.46 14.46 0 00322 23.61a13.65 13.65 0 00-2.64-4.26 13.05 13.05 0 00-3.87-2.91 10.5 10.5 0 00-4.71-1.08 10.69 10.69 0 00-4.78 1.08 12.35 12.35 0 00-3.87 2.94 14.63 14.63 0 00-2.64 4.35 14.08 14.08 0 00-.99 5.27zM333.18 6.12V.6h3v5.52zm0 38.28V13.2h3v31.2zM345.84.6h3.06v37.62a3.79 3.79 0 001 2.76 3.63 3.63 0 002.73 1 10.22 10.22 0 001.59-.15 8.55 8.55 0 001.71-.45l.6 2.4a12.53 12.53 0 01-2.52.69 14.88 14.88 0 01-2.58.27 5.47 5.47 0 01-4.05-1.53 5.55 5.55 0 01-1.53-4.11zM374.4 45a14.53 14.53 0 01-6.12-1.29 15.12 15.12 0 01-4.89-3.54A16.82 16.82 0 01359 28.68a16.53 16.53 0 014.38-11.31 14.81 14.81 0 014.83-3.45 15.11 15.11 0 0112.15 0 15.21 15.21 0 014.86 3.48 15.92 15.92 0 013.18 5.1 16.92 16.92 0 011.14 6.15v.75a1.62 1.62 0 01-.06.57H362.1a14.21 14.21 0 004 9 12.29 12.29 0 003.81 2.64 11.25 11.25 0 004.62 1 11.47 11.47 0 003.18-.45 13 13 0 002.91-1.23A10.54 10.54 0 00383 39a8.86 8.86 0 001.65-2.43l2.64.72a10.13 10.13 0 01-1.95 3.09 13.43 13.43 0 01-3 2.43 15.34 15.34 0 01-3.75 1.59 15.53 15.53 0 01-4.19.6zm12.24-17.4a14.36 14.36 0 00-1.23-5 13.46 13.46 0 00-2.7-3.93 12.23 12.23 0 00-3.81-2.58 11.94 11.94 0 00-9.24 0 12.11 12.11 0 00-3.81 2.58 12.48 12.48 0 00-2.64 4 15.19 15.19 0 00-1.17 5zM410.88 15.9a12.26 12.26 0 00-11.76 9v19.5h-3V13.2H399v7.68a15.06 15.06 0 014.29-5.37 11 11 0 015.71-2.37 10.8 10.8 0 011.08-.06h.78zM431.81 45a12.5 12.5 0 01-7.17-2.13 17.39 17.39 0 01-5.07-5.19v19.5h-3v-44h2.76v6.24a15.22 15.22 0 015.07-4.89 12.9 12.9 0 016.75-1.89 13.23 13.23 0 016 1.38 15.44 15.44 0 014.74 3.63 17.24 17.24 0 014.2 11.19 18.72 18.72 0 01-1 6.18 15.92 15.92 0 01-2.91 5.16 13.9 13.9 0 01-4.53 3.51 13.08 13.08 0 01-5.84 1.31zm-.72-2.7a10.61 10.61 0 004.91-1.14 11.88 11.88 0 003.78-3 13.8 13.8 0 002.4-4.32 15.05 15.05 0 00.84-5 13.9 13.9 0 00-3.63-9.42 13.25 13.25 0 00-4-3 11 11 0 00-4.86-1.11 9.8 9.8 0 00-3.45.69 14.77 14.77 0 00-3.45 1.86 13 13 0 00-2.76 2.67 6.32 6.32 0 00-1.32 3.18V34a15 15 0 002 3.24 15.32 15.32 0 002.7 2.64 12.18 12.18 0 003.24 1.77 10.49 10.49 0 003.6.65zM453.53.6h3.07v37.62a3.79 3.79 0 001 2.76 3.63 3.63 0 002.73 1 10.22 10.22 0 001.59-.15 8.55 8.55 0 001.71-.45l.6 2.4a12.53 12.53 0 01-2.52.69 14.88 14.88 0 01-2.58.27 5.49 5.49 0 01-4.05-1.53 5.55 5.55 0 01-1.53-4.11zM476.51 45a10.7 10.7 0 01-7.29-2.79 9 9 0 01-2.22-3.06 9.34 9.34 0 01-.78-3.81 7.36 7.36 0 011-3.72 9.2 9.2 0 012.67-2.91 13.24 13.24 0 014.11-1.92 19.06 19.06 0 015.28-.69 29.13 29.13 0 015.07.45 25.06 25.06 0 014.59 1.23v-3.06a9.72 9.72 0 00-2.52-7 9.06 9.06 0 00-6.84-2.61 13.72 13.72 0 00-4.83 1 24.75 24.75 0 00-5.19 2.76l-1.14-2q6-4.08 11.4-4.08 5.64 0 8.88 3.27t3.24 9V40.2q0 1.5 1.32 1.5v2.7a6 6 0 01-.63.09h-.57a2.44 2.44 0 01-1.92-.81 3.39 3.39 0 01-.84-2v-2.5a14 14 0 01-5.52 4.32 17.6 17.6 0 01-7.27 1.5zm.6-2.4a15.29 15.29 0 006.39-1.32 10.92 10.92 0 004.5-3.48 4 4 0 001-2.4v-5.52a24.16 24.16 0 00-4.5-1.26 27.47 27.47 0 00-4.86-.42 16.59 16.59 0 00-4.26.51 11.33 11.33 0 00-3.3 1.41 6.54 6.54 0 00-2.13 2.19 5.57 5.57 0 00-.75 2.85 7.29 7.29 0 00.6 2.94 6.91 6.91 0 001.68 2.37A8 8 0 00474 42a8.64 8.64 0 003.11.6zM514.73 42.9l-.81.45a8.32 8.32 0 01-1.44.63 18 18 0 01-2 .54 10.78 10.78 0 01-2.34.24 7.64 7.64 0 01-2.37-.36 5.63 5.63 0 01-1.95-1.08 5.15 5.15 0 01-1.32-1.74 5.59 5.59 0 01-.48-2.4V15.66h-4.38V13.2h4.38V2.52h3V13.2h7.26v2.46h-7.26v22.8a3 3 0 001.2 2.61 4.49 4.49 0 002.7.87 7.53 7.53 0 003.21-.63q1.35-.63 1.65-.81zM532.49 45a14.53 14.53 0 01-6.12-1.29 15.12 15.12 0 01-4.89-3.54 16.82 16.82 0 01-4.41-11.49 16.53 16.53 0 014.38-11.31 14.92 14.92 0 014.83-3.45 15.11 15.11 0 0112.15 0 15.21 15.21 0 014.86 3.48 15.92 15.92 0 013.18 5.1 16.71 16.71 0 011.14 6.15v.75a1.62 1.62 0 01-.06.57h-27.36a13.9 13.9 0 001.26 5 14.24 14.24 0 002.73 4 12.29 12.29 0 003.82 2.67 11.25 11.25 0 004.62 1 11.42 11.42 0 003.18-.45 13 13 0 002.91-1.23A10.54 10.54 0 00541.1 39a8.86 8.86 0 001.65-2.43l2.64.72a9.94 9.94 0 01-1.95 3.09 13.2 13.2 0 01-3 2.43 15.34 15.34 0 01-3.75 1.59 15.53 15.53 0 01-4.2.6zm12.24-17.4a14.14 14.14 0 00-1.23-5 13.46 13.46 0 00-2.7-3.93 12.11 12.11 0 00-3.8-2.62 11.94 11.94 0 00-9.24 0 12.11 12.11 0 00-3.81 2.58 12.48 12.48 0 00-2.64 4 15.19 15.19 0 00-1.17 5z" fill="#323031"/></g></g></svg>